# xmcd CD database file
#
# Track frame offsets:
#	150
#	22936
#	43234
#	56379
#	75519
#	90376
#	109401
#	131807
#	154286
#	179117
#
# Disc length: 2621 seconds
#
# Revision: 1
# Processed by: cddbd v1.5.1PL0 Copyright (c) Steve Scherf et al.
# Submitted via: CDex 1.51
#
DISCID=810a3b0a
DTITLE=Shiloh Lindsey - For My Smoke
DYEAR=2003
DGENRE=Country
TTITLE0=For My Smoke
TTITLE1=Hell in the First
TTITLE2=Whiskey and Rum
TTITLE3=Where to Turn
TTITLE4=Sally
TTITLE5=Diamonds
TTITLE6=My Favorite Cowboy
TTITLE7=16 Shells from a Thirty-Ought Six
TTITLE8=Children of Space
TTITLE9=Visions
EXTD=YEAR: 2003
EXTT0=
EXTT1=
EXTT2=
EXTT3=
EXTT4=
EXTT5=
EXTT6=
EXTT7=
EXTT8=
EXTT9=
PLAYORDER=
